<mxfile host="app.diagrams.net" agent="Mozilla/5.0 (Windows NT 10.0; Win64; x64) AppleWebKit/537.36 (KHTML, like Gecko) Chrome/138.0.0.0 Safari/537.36 Edg/138.0.0.0" version="28.0.7">
  <diagram name="第 1 页" id="GJdXtXLQBRT6-SJ9j2ar">
    <mxGraphModel dx="2254" dy="1521" grid="1" gridSize="10" guides="1" tooltips="1" connect="1" arrows="1" fold="1" page="1" pageScale="1" pageWidth="827" pageHeight="1169" math="0" shadow="0">
      <root>
        <mxCell id="0" />
        <mxCell id="1" parent="0" />
        <mxCell id="jh94EPZDUvx9oMlH5y8Z-1" value="rfft_flip" style="rounded=1;whiteSpace=wrap;html=1;fontFamily=Times New Roman;fontSize=80;" vertex="1" parent="1">
          <mxGeometry x="210" y="430" width="290" height="110" as="geometry" />
        </mxCell>
        <mxCell id="jh94EPZDUvx9oMlH5y8Z-3" style="edgeStyle=orthogonalEdgeStyle;rounded=0;orthogonalLoop=1;jettySize=auto;html=1;exitX=1;exitY=0.5;exitDx=0;exitDy=0;entryX=0;entryY=0.5;entryDx=0;entryDy=0;" edge="1" parent="1" source="jh94EPZDUvx9oMlH5y8Z-2" target="jh94EPZDUvx9oMlH5y8Z-1">
          <mxGeometry relative="1" as="geometry" />
        </mxCell>
        <mxCell id="jh94EPZDUvx9oMlH5y8Z-2" value="Rev" style="rounded=1;whiteSpace=wrap;html=1;fontFamily=Times New Roman;fontSize=80;" vertex="1" parent="1">
          <mxGeometry x="-110" y="430" width="210" height="110" as="geometry" />
        </mxCell>
        <mxCell id="jh94EPZDUvx9oMlH5y8Z-6" style="edgeStyle=orthogonalEdgeStyle;rounded=0;orthogonalLoop=1;jettySize=auto;html=1;exitX=1;exitY=0.5;exitDx=0;exitDy=0;entryX=0;entryY=0.5;entryDx=0;entryDy=0;" edge="1" parent="1" source="jh94EPZDUvx9oMlH5y8Z-4" target="jh94EPZDUvx9oMlH5y8Z-2">
          <mxGeometry relative="1" as="geometry" />
        </mxCell>
        <mxCell id="jh94EPZDUvx9oMlH5y8Z-8" style="edgeStyle=orthogonalEdgeStyle;rounded=0;orthogonalLoop=1;jettySize=auto;html=1;exitX=0.5;exitY=1;exitDx=0;exitDy=0;entryX=0;entryY=0.5;entryDx=0;entryDy=0;" edge="1" parent="1" source="jh94EPZDUvx9oMlH5y8Z-4" target="jh94EPZDUvx9oMlH5y8Z-7">
          <mxGeometry relative="1" as="geometry" />
        </mxCell>
        <mxCell id="jh94EPZDUvx9oMlH5y8Z-4" value="x" style="rounded=1;whiteSpace=wrap;html=1;fontFamily=Times New Roman;fontSize=80;" vertex="1" parent="1">
          <mxGeometry x="-320" y="435" width="110" height="100" as="geometry" />
        </mxCell>
        <mxCell id="jh94EPZDUvx9oMlH5y8Z-10" style="edgeStyle=orthogonalEdgeStyle;rounded=0;orthogonalLoop=1;jettySize=auto;html=1;exitX=1;exitY=0.5;exitDx=0;exitDy=0;entryX=0;entryY=0.5;entryDx=0;entryDy=0;" edge="1" parent="1" source="jh94EPZDUvx9oMlH5y8Z-7" target="jh94EPZDUvx9oMlH5y8Z-9">
          <mxGeometry relative="1" as="geometry" />
        </mxCell>
        <mxCell id="jh94EPZDUvx9oMlH5y8Z-7" value="GRU" style="rounded=1;whiteSpace=wrap;html=1;fontFamily=Times New Roman;fontSize=80;" vertex="1" parent="1">
          <mxGeometry x="-110" y="630" width="210" height="110" as="geometry" />
        </mxCell>
        <mxCell id="jh94EPZDUvx9oMlH5y8Z-9" value="rfft" style="rounded=1;whiteSpace=wrap;html=1;fontFamily=Times New Roman;fontSize=80;" vertex="1" parent="1">
          <mxGeometry x="230" y="625" width="180" height="120" as="geometry" />
        </mxCell>
      </root>
    </mxGraphModel>
  </diagram>
</mxfile>
